# xmcd CD database file
#
# Track frame offsets:
#	150
#	18149
#	37833
#	54007
#	70130
#	84779
#	104123
#	122033
#	141084
#	156905
#	175789
#	190468
#	206997
#	225682
#	243871
#	261931
#
# Disc length: 3641 seconds
#
# Revision: 0
# Processed by: cddbd v1.5.1PL0 Copyright (c) Steve Scherf et al.
# Submitted via: CDex 1.51
#
DISCID=d30e3710
DTITLE=Gilbert Sigrist - Jazz Loves Paris
DYEAR=1900
DGENRE=Jazz
TTITLE0=Syracuse
TTITLE1=Dimanche à Orly
TTITLE2=Le Vieux Piano De La Plage
TTITLE3=Que Reste T-Il De Nos Amours?
TTITLE4=Avec Le Temps
TTITLE5=Sous Les Ponts De Paris
TTITLE6=Les Plaisirs Démodés
TTITLE7=Ma Plus Belle Histoire D'Amour
TTITLE8=Puisque Vous Partez En Voyage
TTITLE9=La Bohème
TTITLE10=Quand Il Est Mort Le Poète
TTITLE11=Dis, Quand Reviendras-Tu?
TTITLE12=Le Port D'Amsterdam
TTITLE13=Formi-Formidable
TTITLE14=Et Maintenant
TTITLE15=L'Absent
EXTD=
EXTT0=
EXTT1=
EXTT2=
EXTT3=
EXTT4=
EXTT5=
EXTT6=
EXTT7=
EXTT8=
EXTT9=
EXTT10=
EXTT11=
EXTT12=
EXTT13=
EXTT14=
EXTT15=
PLAYORDER=
